Coordinates
version=1
nRows=18
nColumns=34
inDegrees=no

Units are S.I. units (second, meters, Newtons, ...)
If the header above contains a line with 'inDegrees', this indicates whether rotational values are in degrees (yes) or radians (no).

endheader
time	pelvis_tilt	pelvis_list	pelvis_rotation	pelvis_tx	pelvis_ty	pelvis_tz	hip_flexion_r	hip_adduction_r	hip_rotation_r	knee_angle_r	ankle_angle_r	subtalar_angle_r	mtp_angle_r	hip_flexion_l	hip_adduction_l	hip_rotation_l	knee_angle_l	ankle_angle_l	subtalar_angle_l	mtp_angle_l	lumbar_extension	lumbar_bending	lumbar_rotation	arm_flex_r	arm_add_r	arm_rot_r	elbow_flex_r	pro_sup_r	arm_flex_l	arm_add_l	arm_rot_l	elbow_flex_l	pro_sup_l
1.42	-0.262309	-0.0571975	0.0275695	-0.386666	0.927219	-0.610649	0.741899	-0.106522	-0.230071	0.37556	-0.544431	-0.039076	-0.0939196	0.745668	-0.233293	-0.150172	0.308322	-0.455601	0.0805889	-0.09392	-0.423649	0.0638183	-0.0585385	-0.432651	-0.719176	-0.0822644	1.14408	1.73251	-0.598547	-0.285364	-0.252286	1.0351	0.527441
1.43	-0.26553	-0.0477302	0.0229159	-0.3792	0.897087	-0.610175	0.803349	-0.112146	-0.189822	0.522971	-0.312995	-0.069311	-0.0939091	0.80421	-0.219675	-0.106105	0.453337	-0.233087	0.0401585	-0.0939094	-0.416456	0.0508341	-0.0622365	-0.399027	-0.733774	-0.0613578	1.12321	1.73417	-0.582701	-0.298313	-0.228243	0.977087	0.99395
1.44	-0.270792	-0.0398724	0.0178283	-0.372554	0.868472	-0.60983	0.866503	-0.116185	-0.153477	0.661771	-0.113805	-0.0948356	-0.0938985	0.866625	-0.208187	-0.0670814	0.592454	-0.0457914	0.00378017	-0.0938988	-0.410961	0.040107	-0.0647219	-0.357882	-0.746722	-0.0357079	1.10403	1.73611	-0.560749	-0.312019	-0.207318	0.933977	1.34147
1.45	-0.277968	-0.033633	0.012313	-0.366762	0.841431	-0.609594	0.9311	-0.118691	-0.121067	0.791711	0.0528455	-0.115672	-0.093888	0.932512	-0.198836	-0.0330891	0.72526	0.106359	-0.0284597	-0.0938882	-0.407309	0.0315982	-0.0661121	-0.30913	-0.758042	-0.00517428	1.08665	1.73832	-0.532875	-0.326465	-0.189289	0.905184	1.5777
1.46	-0.286578	-0.0289461	0.00641427	-0.361733	0.816051	-0.609415	0.996378	-0.119809	-0.0926946	0.912223	0.186935	-0.131852	-0.0938775	1.0007	-0.19162	-0.00402029	0.85068	0.224372	-0.0563674	-0.0938776	-0.405847	0.0252633	-0.066653	-0.252767	-0.767797	0.030442	1.07151	1.74072	-0.499588	-0.341615	-0.173745	0.889633	1.71872
1.47	-0.295976	-0.0257355	0.000257173	-0.357345	0.792994	-0.609352	1.0609	-0.119849	-0.068534	1.02254	0.289779	-0.143354	-0.0938669	1.06906	-0.186459	0.0203837	0.967083	0.311189	-0.0796782	-0.0938671	-0.407153	0.0209922	-0.0667029	-0.189136	-0.776104	0.071215	1.05941	1.74318	-0.461814	-0.357427	-0.160205	0.88609	1.78608
1.48	-0.305359	-0.0238988	-0.00595764	-0.353526	0.772391	-0.609428	1.12271	-0.119267	-0.048782	1.12187	0.36463	-0.150111	-0.0938564	1.1348	-0.18313	0.0405286	1.07262	0.371882	-0.0981786	-0.0938565	-0.411838	0.018609	-0.0666579	-0.119159	-0.783133	0.116884	1.05145	1.74544	-0.420843	-0.373891	-0.148178	0.893409	1.80278
1.49	-0.314152	-0.023305	-0.0119884	-0.350386	0.754026	-0.60964	1.17979	-0.118559	-0.0335339	1.20949	0.416409	-0.152174	-0.0938458	1.19519	-0.18128	0.0569517	1.16567	0.412841	-0.111896	-0.0938459	-0.420253	0.0178592	-0.0668222	-0.0444597	-0.789096	0.166647	1.04884	1.7471	-0.378159	-0.39108	-0.13713	0.910546	1.78974
1.5	-0.322113	-0.0237202	-0.017638	-0.347756	0.737685	-0.609977	1.2307	-0.118081	-0.0226496	1.28499	0.45083	-0.149935	-0.0938353	1.24837	-0.180494	0.070309	1.2453	0.440497	-0.121241	-0.0938353	-0.432116	0.0184507	-0.0672637	0.0325994	-0.794229	0.218997	1.05257	1.74767	-0.335225	-0.409162	-0.126403	0.936396	1.76351
1.51	-0.329537	-0.0249094	-0.0228143	-0.345508	0.723201	-0.610412	1.27502	-0.11796	-0.0156667	1.34842	0.473422	-0.14421	-0.0938248	1.29385	-0.180335	0.0813425	1.31146	0.460221	-0.127015	-0.0938247	-0.446421	0.0200145	-0.0677578	0.109038	-0.798781	0.271715	1.06319	1.7466	-0.293323	-0.428359	-0.115222	0.969605	1.73539
1.52	-0.337194	-0.0266256	-0.0275255	-0.343562	0.710349	-0.610909	1.31331	-0.1181	-0.0118345	1.4004	0.488809	-0.136144	-0.0938142	1.33245	-0.180369	0.090818	1.3651	0.475736	-0.130307	-0.0938141	-0.461618	0.022145	-0.0678655	0.18157	-0.80299	0.322095	1.08058	1.74338	-0.253508	-0.448849	-0.10285	1.00847	1.71176
1.53	-0.346078	-0.0286133	-0.0318248	-0.34189	0.698867	-0.61144	1.34692	-0.118296	-0.01024	1.44208	0.500361	-0.126994	-0.0938037	1.36592	-0.180169	0.0994254	1.40786	0.489092	-0.132315	-0.0938036	-0.475957	0.024453	-0.0671317	0.24709	-0.807045	0.36741	1.10387	1.73769	-0.216652	-0.470651	-0.0888374	1.05092	1.69518
1.54	-0.357109	-0.0306199	-0.0357452	-0.340448	0.688635	-0.612002	1.37753	-0.118381	-0.00996487	1.47498	0.510181	-0.117902	-0.0937932	1.39633	-0.179323	0.107675	1.44172	0.501023	-0.134144	-0.093793	-0.487866	0.0266195	-0.0653198	0.303202	-0.811053	0.405474	1.13148	1.72955	-0.183547	-0.493527	-0.0732719	1.09467	1.68575
1.55	-0.370888	-0.0324343	-0.0392675	-0.339138	0.679637	-0.612568	1.4067	-0.118308	-0.0102319	1.50069	0.519306	-0.109726	-0.0937827	1.42555	-0.177475	0.115851	1.46863	0.511505	-0.136651	-0.0937824	-0.496253	0.0284489	-0.0624667	0.348443	-0.815037	0.434917	1.16126	1.71943	-0.154905	-0.516955	-0.0567673	1.13721	1.68236
1.56	-0.387625	-0.0339247	-0.042323	-0.337893	0.671806	-0.613143	1.43552	-0.11814	-0.0104988	1.52066	0.528032	-0.102974	-0.0937721	1.4548	-0.174397	0.124033	1.49018	0.520265	-0.140346	-0.0937718	-0.500687	0.0298754	-0.0588508	0.382325	-0.818945	0.455281	1.1909	1.7083	-0.131371	-0.540177	-0.0403526	1.1761	1.68363
1.57	-0.407144	-0.0350648	-0.0448521	-0.336679	0.665005	-0.613758	1.46447	-0.117999	-0.0104958	1.53607	0.536241	-0.0978005	-0.0937616	1.48457	-0.170049	0.132156	1.50755	0.527132	-0.145363	-0.0937612	-0.501405	0.0309525	-0.0549029	0.405177	-0.822687	0.466952	1.2182	1.69745	-0.113539	-0.562299	-0.0252722	1.20909	1.68842
1.58	-0.428959	-0.0359364	-0.046844	-0.335523	0.659071	-0.614412	1.49347	-0.118011	-0.010206	1.54774	0.543677	-0.0940669	-0.0937511	1.51468	-0.164596	0.140079	1.52145	0.532168	-0.15149	-0.0937507	-0.499147	0.031811	-0.0510844	0.417827	-0.826181	0.470927	1.24138	1.68817	-0.101942	-0.58244	-0.0127375	1.23443	1.69609
1.59	-0.452407	-0.0366958	-0.0483482	-0.334442	0.653945	-0.615114	1.52201	-0.11827	-0.00979251	1.55621	0.550108	-0.0914371	-0.0937406	1.54457	-0.158392	0.147627	1.53234	0.535646	-0.15826	-0.0937401	-0.494944	0.0325881	-0.047768	0.421235	-0.829409	0.468485	1.25932	1.68143	-0.0970336	-0.599862	-0.00368052	1.25108	1.70633
